#N canvas 73 23 1430 992 24;
#X obj 122 535 readsf~ 2;
#X msg 122 490 start;
#X obj 122 782 throw~ out1;
#X obj 170 824 throw~ out2;
#X obj 646 -97 r \$0-end;
#X obj 218 221 switch~;
#X msg 218 185 1;
#X obj 122 -104 r \$0-play;
#X obj 1139 539 r \$0-azimuth1;
#X obj 1139 320 r \$0-elevation1;
#X obj 646 190 s \$0-playfinished;
#X msg 698 117 0;
#X obj 646 47 delay 10;
#X obj 646 11 t b b;
#X obj 731 7 r \$0-fadeouttime;
#X obj 754 47 s \$0-startfadeout;
#X obj 721 414 f 5000;
#X obj 784 377 r \$0-fadeouttime;
#X obj 170 679 *~ 0;
#X obj 122 647 *~ 0;
#X obj 498 373 r \$0-fadeintime;
#X obj 435 415 f 1000;
#X msg 435 455 1 \$1;
#X msg 721 454 0 \$1;
#X obj 435 506 line 0;
#X obj 435 331 r \$0-startfadein;
#X obj 721 333 r \$0-startfadeout;
#X obj 122 -8 t b b b b;
#X obj 186 96 s \$0-startfadein;
#X obj 1140 436 receive \$0-distance1;
#X obj 1139 361 print elevation:;
#X obj 1140 480 print distance:;
#X obj 1139 585 print azimuth:;
#X text 754 -108 end is send by the app \, whenever an exit condition
is met \, for example when one leaves the state radius.;
#X text 756 79 when the fadeout is done \, the patcher should be turned
off with switch~ and must send playfinished back to the app in order
set the "busy" flag of the asset to false;
#X obj 646 82 t b b;
#X text 118 -72 play is send by the app when enterconditions are fulfilled
\, for example when the hero enters the state radius.;
#X text 44 24 after receiving the playmessage \, dsp should be turned
on for the patch by using the switch~ object.;
#X obj 557 562 print gain:;
#X text 428 250 gain \, startfadein \, startfadeout \, fadeintime &
fadouttime is send by the app on entering/exiting the state;
#X text 992 637 elevation \, distance and azimuth are send continously.
;
#X obj 557 507 r \$0-gain;
#X obj 1142 667 r \$0-lon;
#X obj 997 669 r \$0-lat;
#X obj 1142 727 print lon:;
#X obj 998 724 print lat:;
#X obj 170 742 *~ 0;
#X obj 122 708 *~ 0;
#X obj 757 694 r \$0-step;
#X obj 757 729 print STEP PD;
#X msg 153 334 XXX.wav;
#X text 278 788 send any signal to out1 & out2;
#X text 129 372 connect to readsf;
#X connect 0 0 19 0;
#X connect 0 1 18 0;
#X connect 1 0 0 0;
#X connect 4 0 13 0;
#X connect 6 0 5 0;
#X connect 7 0 27 0;
#X connect 11 0 5 0;
#X connect 12 0 35 0;
#X connect 13 0 12 0;
#X connect 13 1 15 0;
#X connect 14 0 12 1;
#X connect 16 0 23 0;
#X connect 17 0 16 1;
#X connect 18 0 46 0;
#X connect 19 0 47 0;
#X connect 20 0 21 1;
#X connect 21 0 22 0;
#X connect 22 0 24 0;
#X connect 23 0 24 0;
#X connect 24 0 18 1;
#X connect 24 0 19 1;
#X connect 25 0 21 0;
#X connect 26 0 16 0;
#X connect 27 0 1 0;
#X connect 27 1 50 0;
#X connect 27 2 28 0;
#X connect 27 3 6 0;
#X connect 35 0 10 0;
#X connect 35 1 11 0;
#X connect 41 0 47 1;
#X connect 41 0 46 1;
#X connect 46 0 3 0;
#X connect 47 0 2 0;
#X connect 48 0 49 0;
