#N canvas 153 178 1410 663 10;
#X obj 266 98 soundfiler;
#X obj 536 512 throw~ out1;
#X obj 616 513 throw~ out2;
#X obj 69 193 route 0 1 2 3 4 5 6 7;
#X obj 69 159 random 8;
#X obj 42 85 t b b;
#X obj 537 97 soundfiler;
#X obj 812 97 soundfiler;
#X obj 1088 95 soundfiler;
#X obj 266 150 soundfiler;
#X obj 537 149 soundfiler;
#X obj 815 149 soundfiler;
#X obj 1088 147 soundfiler;
#X obj 96 265 tabplay~ array02;
#X obj 69 286 tabplay~ array01;
#X obj 69 241 t b b;
#X obj 197 240 t b b;
#X obj 1097 339 table array01;
#X obj 1187 339 table array02;
#X obj 1097 364 table array11;
#X obj 1187 364 table array12;
#X obj 224 264 tabplay~ array12;
#X obj 197 285 tabplay~ array11;
#X obj 331 243 t b b;
#X obj 459 242 t b b;
#X obj 591 241 t b b;
#X obj 719 240 t b b;
#X obj 853 243 t b b;
#X obj 981 242 t b b;
#X obj 358 267 tabplay~ array22;
#X obj 331 288 tabplay~ array21;
#X obj 486 266 tabplay~ array32;
#X obj 459 287 tabplay~ array31;
#X obj 618 267 tabplay~ array42;
#X obj 591 286 tabplay~ array41;
#X obj 746 264 tabplay~ array52;
#X obj 719 285 tabplay~ array51;
#X obj 880 267 tabplay~ array62;
#X obj 853 288 tabplay~ array61;
#X obj 1008 266 tabplay~ array72;
#X obj 981 287 tabplay~ array71;
#X obj 1097 388 table array21;
#X obj 1187 388 table array22;
#X obj 1097 413 table array31;
#X obj 1097 436 table array41;
#X obj 1097 461 table array51;
#X obj 1097 485 table array61;
#X obj 1187 413 table array32;
#X obj 1187 436 table array42;
#X obj 1187 461 table array52;
#X obj 1187 485 table array62;
#X obj 1187 510 table array72;
#X msg 812 73 read -resize cavestep2.wav array21 array22;
#X msg 1088 71 read -resize cavestep3.wav array31 array32;
#X msg 266 127 read -resize cavestep4.wav array41 array42;
#X msg 537 125 read -resize cavestep5.wav array51 array52;
#X msg 815 125 read -resize cavestep6.wav array61 array62;
#X msg 1088 123 read -resize cavestep7.wav array71 array72;
#X obj 1097 510 table array71;
#X obj 174 45 delay 10;
#X obj 528 47 delay 10;
#X obj 801 49 delay 10;
#X obj 1076 47 delay 10;
#X obj 476 103 delay 10;
#X obj 747 100 delay 10;
#X obj 1021 103 delay 10;
#X obj 204 108 delay 50;
#X obj 147 22 t b b;
#X msg 537 73 read -resize cavestep1.wav array11 array12;
#X msg 266 74 read -resize cavestep0.wav array01 array02;
#X obj 147 -7 loadbang;
#X obj 35 27 r \$0-step;
#X obj 822 -127 r \$0-end;
#X obj 605 -5 switch~;
#X msg 605 -81 1;
#X obj 605 -118 r \$0-play;
#X text 128 -62 play is send by the app when enterconditions are fulfilled
\, for example when the hero enters the state radius.;
#X obj 822 -6 s \$0-playfinished;
#X msg 849 -69 0;
#X obj 822 -103 t b b;
#X connect 3 0 15 0;
#X connect 3 1 16 0;
#X connect 3 2 23 0;
#X connect 3 3 24 0;
#X connect 3 4 25 0;
#X connect 3 5 26 0;
#X connect 3 6 27 0;
#X connect 3 7 28 0;
#X connect 4 0 3 0;
#X connect 5 1 4 0;
#X connect 13 0 2 0;
#X connect 14 0 1 0;
#X connect 15 0 14 0;
#X connect 15 1 13 0;
#X connect 16 0 22 0;
#X connect 16 1 21 0;
#X connect 21 0 2 0;
#X connect 22 0 1 0;
#X connect 23 0 30 0;
#X connect 23 1 29 0;
#X connect 24 0 32 0;
#X connect 24 1 31 0;
#X connect 25 0 34 0;
#X connect 25 1 33 0;
#X connect 26 0 36 0;
#X connect 26 1 35 0;
#X connect 27 0 38 0;
#X connect 27 1 37 0;
#X connect 28 0 40 0;
#X connect 28 1 39 0;
#X connect 29 0 2 0;
#X connect 30 0 1 0;
#X connect 31 0 2 0;
#X connect 32 0 1 0;
#X connect 33 0 2 0;
#X connect 34 0 1 0;
#X connect 35 0 2 0;
#X connect 36 0 1 0;
#X connect 37 0 2 0;
#X connect 38 0 1 0;
#X connect 39 0 2 0;
#X connect 40 0 1 0;
#X connect 52 0 7 0;
#X connect 53 0 8 0;
#X connect 54 0 9 0;
#X connect 55 0 10 0;
#X connect 56 0 11 0;
#X connect 57 0 12 0;
#X connect 59 0 69 0;
#X connect 59 0 60 0;
#X connect 59 0 66 0;
#X connect 60 0 68 0;
#X connect 60 0 61 0;
#X connect 61 0 52 0;
#X connect 61 0 62 0;
#X connect 62 0 53 0;
#X connect 63 0 55 0;
#X connect 63 0 64 0;
#X connect 64 0 56 0;
#X connect 64 0 65 0;
#X connect 65 0 57 0;
#X connect 66 0 54 0;
#X connect 66 0 63 0;
#X connect 67 0 78 0;
#X connect 67 1 59 0;
#X connect 68 0 6 0;
#X connect 69 0 0 0;
#X connect 70 0 67 0;
#X connect 71 0 5 0;
#X connect 72 0 79 0;
#X connect 74 0 73 0;
#X connect 75 0 74 0;
#X connect 78 0 73 0;
#X connect 79 0 77 0;
#X connect 79 1 78 0;
